<?xml version="1.0" encoding="UTF-8"?>
<svg id="Layer_1" data-name="Layer 1" xmlns="http://www.w3.org/2000/svg" viewBox="0 0 566.93 566.93">
  <defs>
    <style>
      .cls-1 {
        fill: #5fd0df;
      }

      .cls-1, .cls-2 {
        stroke-width: 0px;
      }

      .cls-2 {
        fill: #004987;
      }
    </style>
  </defs>
  <g>
    <path class="cls-1" d="M402.81,124.38c-.01-23.42-17.68-41.1-41.11-41.12-21.04-.02-42.13-.03-62.79-.03-32.88,0-64.69.02-93.61.04-2.4,0-5.17.04-7.74.56-20.23,4.05-33.33,19.95-33.38,40.5-.09,38.43-.07,77.51-.05,115.31,0,14.59,0,29.19,0,43.78.01,15.84,0,31.68-.02,47.52-.02,36.74-.04,74.74.09,112.11.08,23.13,17.72,40.59,41.03,40.61,51.89.05,104.51.05,156.4,0,23.46-.02,41.16-17.68,41.17-41.08.03-103.27.03-210.33,0-318.2ZM234.6,99.33v-3.84h97.76v1.5c0,.88,0,1.74,0,2.59.02,1.88.04,3.66-.03,5.48-.27,7.21-3.66,10.44-10.98,10.46-8.23.03-16.54.04-24.78.04-5.24,0-10.45-.01-15.59-.01h-15.66s-5.77,0-5.77,0c-4.37.01-8.73.01-13.09-.01-8.57-.05-11.79-3.25-11.87-11.81-.01-1.42,0-2.85,0-4.4ZM390.77,174.79c0,6.79-.01,13.57-.01,20.36v243.7c0,21.43-11.3,32.76-32.67,32.76h-149.35c-20.94,0-32.48-11.48-32.48-32.33,0-104.06,0-208.11,0-312.17,0-20.19,11.63-31.78,31.92-31.8,2.74-.01,5.48-.01,8.38,0h5.93v1.5c0,1.19,0,2.34,0,3.45-.01,2.28-.02,4.43.02,6.57.22,11.61,9.37,20.74,20.82,20.79,23.42.1,48.78.1,79.79.01,12.19-.04,21.19-9.03,21.41-21.38.03-1.91.02-3.82,0-5.95,0-1.06,0-2.17,0-3.35v-1.51h1.51c2.14.02,4.33-.07,6.45-.16,7.03-.28,14.31-.56,21.21,2.6,11.09,5.08,16.98,14.47,17.04,27.17.07,16.58.06,33.44.04,49.74Z"/>
    <path class="cls-1" d="M335.92,441.75c-.04,3.76-2.77,6.11-7.12,6.14-10.76.08-21.7.07-32.28.06-4.17-.01-8.35-.01-12.53-.01h-13.35c-10.61-.01-21.23-.02-31.84.01-4.13-.01-6.45-1.35-7.54-4.44-.59-1.63-.45-3.33.39-4.76.88-1.51,2.47-2.58,4.35-2.91,1.63-.29,3.42-.29,5.13-.29h.52c23.37-.01,46.74-.01,70.11-.01h13.42c.34,0,.69,0,1.03-.01.92-.01,1.79-.02,2.65.04,4.79.29,7.1,2.32,7.06,6.18Z"/>
  </g>
  <g>
    <path class="cls-2" d="M346.18,272.63c.9-1.16,1.61-2.11,2.36-3.04,2.16-2.68,5.58-3.17,8.22-1.19,2.51,1.88,3.13,5.44,1.16,8.09-3.91,5.24-7.94,10.39-11.96,15.54-1.57,2.01-3.71,2.47-6.03,1.59-1.28-.48-2.55-1.15-3.64-1.97-4.45-3.34-8.85-6.76-13.24-10.18-2.92-2.27-3.48-5.8-1.41-8.46,2.11-2.71,5.55-3.03,8.53-.79,1.43,1.08,2.85,2.16,4.61,3.5-2.92-16.05-10.83-28.28-24.38-36.6-23.43-14.38-53.82-7.93-69.52,14.65-1.71,2.46-3.76,4-6.83,3.37-4.11-.85-5.83-5.55-3.4-9.18,4.98-7.45,11.26-13.59,18.86-18.35,11.58-7.25,24.23-10.43,37.85-9.69,28.14,1.54,52.58,22.62,58.24,50.15.15.74.34,1.48.58,2.56Z"/>
    <path class="cls-2" d="M220.76,294.24c-.95,1.23-1.66,2.2-2.42,3.12-2.16,2.63-5.62,3.06-8.25,1.05-2.48-1.9-3.02-5.46-1.03-8.11,3.85-5.13,7.78-10.2,11.74-15.25,1.69-2.16,3.73-2.72,6.3-1.76,1.23.46,2.44,1.1,3.48,1.89,4.45,3.34,8.85,6.75,13.24,10.18,2.94,2.29,3.53,5.78,1.5,8.45-2.11,2.77-5.61,3.09-8.67.77-1.39-1.05-2.77-2.11-4.42-3.37,1.22,8.04,3.95,15.15,8.44,21.49,10.8,15.23,25.68,23.01,44.28,22.57,17.21-.41,30.98-8.06,41.06-22.12,1.25-1.74,2.57-3.25,4.81-3.51,2.44-.29,4.42.61,5.71,2.72,1.32,2.17,1.2,4.38-.21,6.49-4.43,6.61-9.9,12.21-16.42,16.77-37.25,26.07-89.15,5.49-98.62-39.11-.14-.64-.3-1.28-.53-2.29Z"/>
  </g>
</svg>