<?xml version="1.0" encoding="UTF-8"?>
<svg id="Layer_1" data-name="Layer 1" xmlns="http://www.w3.org/2000/svg" viewBox="0 0 566.93 566.93">
  <defs>
    <style>
      .cls-1 {
        fill: #5fd0df;
      }

      .cls-1, .cls-2 {
        stroke: #fff;
        stroke-miterlimit: 10;
        stroke-width: 3px;
      }

      .cls-2 {
        fill: #004987;
      }
    </style>
  </defs>
  <path class="cls-1" d="M433.27,398.68l-1.84-.77v-2c0-3.39,0-6.79.02-10.2.03-7.56.05-15.37-.04-23.06-.15-12.6-9.82-23.95-21.54-25.3-7.46-.86-15.24-.82-22.76-.79-3.36.02-6.84.04-10.28-.03-.82-.01-1.64-.01-2.59,0h-7.61l3.57-4.79c.22-.29.38-.52.52-.71.29-.41.53-.76.89-1.12,9.31-9.39,15.52-21.21,18.47-35.13.93-4.38,4.57-4.35,5.77-4.35,4.53.03,9.06.03,13.6.02h28.01v6.18c-.02,2.2-.02,4.29,0,6.38.05,4.28,2.96,7.42,6.92,7.47h.1c1.87,0,3.53-.66,4.8-1.91,1.41-1.39,2.19-3.38,2.19-5.62.04-12.99.04-26.13,0-39.05,0-2.23-.78-4.21-2.18-5.6-1.3-1.27-2.99-1.93-4.92-1.91-3.95.05-6.86,3.2-6.91,7.48-.02,2.1-.02,4.2,0,6.35v6.01s-46.36,0-46.36,0l-.27-2.71c-1.25-12.56-5.02-24.91-11.88-38.86l-2.13-4.32h12.19c5.18.01,10.18.02,15.18-.01,15.23-.07,27.2-12.08,27.26-27.34v-1.33c.04-9.07.08-18.46-.05-27.67-.05-3.48,1.34-5.69,4.5-7.19,11.38-5.4,17.28-16.97,15.03-29.49-1.27-7.06-5.33-13.18-11.43-17.24-6.16-4.1-13.79-5.53-20.96-3.95-7.16,1.59-13.48,6.17-17.32,12.55-3.82,6.37-4.87,13.71-2.93,20.69,2.44,8.83,8.09,14.93,17.26,18.67l1.87.76v11.42c0,7.44.02,14.88-.01,22.31-.03,8.22-5.61,13.76-13.88,13.79h-3.34c-9.54.04-19.4.07-29.12-.09-2.56-.04-5.01-1.48-6.46-2.82-1.75-1.62-3.4-3.35-5-5.01-2.03-2.13-3.96-4.13-6.06-5.94-25.74-22.19-55.44-30.69-88.29-25.27-25.16,4.14-46.72,16.41-64.09,36.45-1.11,1.29-3.16,2.59-5.22,2.61-9.31.09-21.56.18-33.81.02-6.8-.09-12.43-5.59-12.55-12.26-.13-7.85-.1-15.81-.08-23.5.01-3.18.02-6.36.02-9.53v-1.98l1.83-.78c15.83-6.75,20.17-20.98,17.46-32.09-2.93-11.96-13.99-20.64-26.3-20.65h-.01c-12.32,0-23.39,8.67-26.32,20.61-2.75,11.19,1.58,25.45,17.46,32.09l1.84.77v11.59c0,7.65-.02,15.34.01,23.02.02,5.56,1.66,10.65,4.86,15.12,5.39,7.52,12.91,11.43,22.37,11.62,4.88.1,9.73.08,14.86.05,2.33-.01,4.69-.02,7.09-.02h4.87l-2.19,4.34c-6.19,12.33-9.79,25.04-11.02,38.86l-.24,2.73h-46.63v-6.03c.02-2.16.02-4.26,0-6.36-.06-4.28-2.97-7.42-6.92-7.47-1.92-.03-3.62.64-4.91,1.91-1.4,1.38-2.18,3.37-2.19,5.61-.03,13.03-.03,26.17.01,39.05,0,2.24.78,4.23,2.18,5.61,1.29,1.27,3,1.97,4.91,1.91,3.95-.05,6.86-3.2,6.92-7.48.02-2.1.02-4.2.01-6.35v-6.02s46.65,0,46.65,0l.39,2.54c2.24,14.49,8.56,27.02,19.35,38.29l4.85,5.07h-17.08c-3.17-.01-6.28-.01-9.37-.01-3.85,0-7.64.01-11.44.02-15.27.06-27.28,12.03-27.34,27.26v3.45c-.05,8.37-.09,17.03.07,25.53.06,3.63-1.36,5.85-4.74,7.43-11.34,5.27-17.14,16.88-14.79,29.57,2.1,11.33,12.51,20.61,24.21,21.58,12.87,1.08,24.78-7.29,28.3-19.9,3.49-12.43-2.44-25.51-14.08-31.1-3.6-1.73-5.1-4.2-5.01-8.25.13-6.27.11-12.66.09-18.85-.01-2.71-.02-5.42-.02-8.14,0-9.24,5.28-14.55,14.46-14.56,9.95-.01,19.9-.01,29.85,0h22.5v6.2c0,2.19,0,4.27,0,6.36.06,16.05,12.23,28.17,28.31,28.17,25.72.02,51.44.01,77.16.01,16.93-.01,28.78-11.8,28.81-28.67,0-2.02,0-4.03,0-6.1v-5.95s2.99,0,2.99,0c4.85,0,9.66-.01,14.45-.02,12.74-.02,24.78-.04,37.09.08,6.51.06,12.09,5.68,12.2,12.27.13,7.85.1,15.81.08,23.51,0,3.17-.03,6.34-.03,9.51v1.99l-1.83.77c-15.85,6.69-20.18,20.93-17.45,32.08,2.99,12.16,13.87,20.63,26.48,20.63h.15c12.15-.06,23.08-8.74,25.99-20.63,2.74-11.17-1.59-25.43-17.46-32.09ZM411.41,142.26c.14-6.95,6.08-12.76,13.02-12.76h.14c6.99.08,12.88,6.04,12.88,13.02v.02c-.01,3.43-1.48,6.81-4.02,9.28-2.45,2.37-5.72,3.72-9.01,3.72-.12,0-.24,0-.35-.01-7.01-.2-12.8-6.28-12.66-13.27ZM142.59,155.53h-.1c-3.38,0-6.73-1.42-9.2-3.91-2.49-2.51-3.88-5.91-3.82-9.33.13-6.96,6.08-12.79,13.02-12.79h.12c6.99.06,12.9,6.03,12.9,13.02,0,3.49-1.48,6.73-3.83,9.1-2.36,2.37-5.59,3.88-9.09,3.91ZM155.51,424.32c.02,6.99-5.88,12.97-12.87,13.05-.05,0-.1.01-.14.01-3.38,0-6.71-1.41-9.18-3.89-2.49-2.5-3.9-5.9-3.85-9.32.1-6.99,6.06-12.85,13.09-12.83,7,.04,12.93,5.98,12.95,12.98ZM342.79,332.88c-5.17,2.08-6.21,3.59-6.22,9.02,0,2.43,0,4.86.01,7.29,0,4.48.01,8.95-.01,13.42-.04,8.88-5.76,14.64-14.57,14.66-1.79.01-3.59.01-5.53,0h-5.95v-3c0-3.16,0-6.29.01-9.39,0-7.22.02-14.03-.03-20.97-.02-2.77-1.34-5.2-3.53-6.49-2.07-1.21-4.53-1.21-6.75,0-2.56,1.39-3.74,3.52-3.74,6.69.01,7.02.01,14.05.01,21.15v11.77h-26.06v-23.34c0-3.08,0-6.17,0-9.25-.01-2.48-.81-4.62-2.26-6.05-1.24-1.23-2.91-1.86-4.81-1.85-4.22.03-6.95,3.19-6.95,8.05-.02,6.84-.01,13.69-.01,20.65v11.97h-3c-1.2,0-2.37.03-3.53.06-1.13.02-2.28.05-3.44.05-1.49,0-2.98-.05-4.47-.18-6.44-.6-11.53-6.69-11.6-13.87-.04-4.79-.03-9.66-.02-14.37,0-2.34,0-4.68,0-7.02,0-5.25-1.13-6.92-5.99-8.91-18.67-7.65-30-21.25-33.67-40.4-2.68-13.99-.82-28.73,5.55-43.82,14.06-33.3,39.08-52.88,74.36-58.22,49.27-7.43,97.26,28.11,104.77,77.64,1.6,10.54,2.63,24.34-3.68,37.64-6.02,12.67-15.74,21.78-28.9,27.07ZM424.43,437.37h-.11c-3.5-.03-6.73-1.54-9.08-3.91s-3.83-5.61-3.83-9.11,1.45-6.8,3.98-9.27c2.53-2.46,5.94-3.83,9.36-3.74,7.01.18,12.82,6.24,12.7,13.23-.13,6.97-6.08,12.8-13.02,12.8Z"/>
  <path class="cls-2" d="M266.94,277.45c-13.83-7.08-27.38-13.97-41.07-20.5-.93-.44-1.88-.66-2.82-.66-1.14,0-2.25.32-3.28.95-2.09,1.28-3.37,3.6-3.44,6.21-.06,2.4-.04,4.87-.03,7.25,0,1.12.02,2.24.02,3.36v2.92c0,2.14,0,4.27,0,6.41.09,14.26,11.44,26.4,25.3,27.07,14.91.7,27.27-9.84,28.76-24.56.57-5.64-1.54-7.48-3.44-8.45ZM254.03,290.27c-2.48,4.01-6.27,6.18-10.45,6.18-1.43,0-2.91-.25-4.4-.78-4.57-1.61-9.75-5.74-8.5-16.25l.51-4.24,24.57,12.3-1.73,2.79Z"/>
  <path class="cls-2" d="M350.6,277.24v-5.77c0-2.14,0-4.28,0-6.42,0-3.65-1.16-6.38-3.26-7.68-.93-.57-2.03-.86-3.25-.86-1.55,0-3.29.46-5.12,1.37-9.15,4.55-18.29,9.11-27.43,13.68l-8.06,4.03c-7.01,3.5-7.85,5.21-6.43,13.03,2.26,12.44,13.61,21.84,26.4,21.86h.04c13.05,0,24.43-9.43,26.48-21.95.5-3.1.61-6.26.72-9.62.02-.55.04-1.11.06-1.66h-.15ZM329.19,295.09c-1.88.91-3.79,1.36-5.66,1.36-3.93,0-7.68-2-10.63-5.83l-2.21-2.89,24.43-12.21.84,3.73c1.61,7.07-.92,12.99-6.77,15.84Z"/>
</svg>