<?xml version="1.0" encoding="UTF-8"?>
<svg id="Layer_1" data-name="Layer 1" xmlns="http://www.w3.org/2000/svg" viewBox="0 0 566.93 566.93">
  <defs>
    <style>
      .cls-1 {
        fill: #5fd0df;
      }

      .cls-1, .cls-2 {
        stroke-width: 0px;
      }

      .cls-2 {
        fill: #004987;
      }
    </style>
  </defs>
  <g>
    <path class="cls-1" d="M402.8,124.39c0-23.43-17.68-41.11-41.11-41.13-20.61-.02-41.18-.02-62.39-.02-29.44,0-60.14.01-94.01.03-2.4,0-5.17.05-7.74.56-20.23,4.05-33.33,19.95-33.38,40.5-.09,38.46-.07,77.56-.05,115.38,0,14.57,0,29.14,0,43.72,0,15.83,0,31.67,0,47.51-.03,36.75-.05,74.75.08,112.12.08,23.13,17.72,40.58,41.03,40.6,51.71.05,104.33.05,156.4,0,23.46-.02,41.16-17.68,41.17-41.08.03-103.27.04-210.32,0-318.19ZM234.59,99.34v-3.85h97.76v1.5c0,.88.01,1.74.02,2.59,0,1.89.03,3.67-.04,5.49-.27,7.21-3.66,10.43-10.98,10.46-8.29.02-16.65.03-24.95.03h-31.08s-5.77,0-5.77,0c-4.37,0-8.73.01-13.09-.02-8.57-.05-11.79-3.25-11.86-11.8-.02-1.43,0-2.85,0-4.4ZM390.76,174.84c0,6.77,0,13.54,0,20.31v243.71c0,21.42-11.3,32.75-32.67,32.75-23.73.01-47.47.01-71.2.01-26.05,0-52.1,0-78.15-.01-20.94,0-32.48-11.48-32.48-32.32,0-104.06-.01-208.12,0-312.18,0-20.19,11.63-31.78,31.92-31.8h14.31v1.5c0,1.2-.01,2.34-.01,3.45,0,2.28-.02,4.44.02,6.57.22,11.61,9.37,20.74,20.82,20.79,23.5.1,48.85.11,79.79.01,12.19-.03,21.19-9.02,21.41-21.37.03-1.92.02-3.83.01-5.96,0-1.05-.01-2.16-.01-3.35v-1.51h1.51c2.15.04,4.33-.07,6.44-.15,7.04-.28,14.32-.57,21.22,2.6,11.09,5.07,16.98,14.47,17.04,27.17.07,16.59.06,33.47.04,49.78Z"/>
    <path class="cls-1" d="M335.91,441.76c-.04,3.75-2.77,6.11-7.12,6.14-10.74.08-21.66.06-32.23.05-4.14,0-8.28-.01-12.42-.01h-13.2c-10.72-.01-21.43-.01-32.15.02-4.11.01-6.45-1.36-7.54-4.44-.59-1.64-.45-3.33.39-4.76.88-1.52,2.47-2.58,4.36-2.92,1.63-.29,3.41-.29,5.13-.28h.51c23.2-.02,46.4-.02,69.61-.02h14.96c.91,0,1.78-.02,2.64.03,4.79.3,7.1,2.32,7.06,6.19Z"/>
  </g>
  <g>
    <path class="cls-2" d="M283.58,222.12c-33.91-.04-61.43,27.36-61.47,61.23-.04,33.9,27.36,61.42,61.23,61.46,33.86.05,61.37-27.3,61.47-61.11.1-33.97-27.32-61.54-61.23-61.59ZM283.38,335.23c-28.56-.04-51.73-23.29-51.69-51.84.05-28.56,23.3-51.73,51.85-51.69,28.56.05,51.73,23.29,51.69,51.84-.05,28.56-23.29,51.74-51.85,51.69Z"/>
    <path class="cls-2" d="M275.34,292.93c.25-.41.44-.89.77-1.22,9.05-9.08,18.12-18.14,27.18-27.21,1.08-1.08,2.26-1.9,3.86-1.88,1.93.02,3.38.88,4.27,2.57.9,1.7.76,3.39-.36,4.96-.34.48-.76.92-1.19,1.34-10.25,10.25-20.5,20.5-30.75,30.75-2.82,2.82-5.34,2.82-8.16,0-4.77-4.77-9.55-9.54-14.31-14.32-1.83-1.84-2.22-3.98-1.12-5.97,1.63-2.95,5.3-3.35,7.9-.8,3.55,3.5,7.07,7.05,10.59,10.59.31.31.54.69.8,1.03.17.05.34.09.52.14Z"/>
  </g>
</svg>