<?xml version="1.0" encoding="UTF-8"?>
<svg id="Layer_1" data-name="Layer 1" xmlns="http://www.w3.org/2000/svg" viewBox="0 0 566.93 566.93">
  <defs>
    <style>
      .cls-1 {
        fill: #5fd0df;
      }

      .cls-1, .cls-2 {
        stroke-width: 0px;
      }

      .cls-2 {
        fill: #004987;
      }
    </style>
  </defs>
  <g>
    <path class="cls-1" d="M248.87,433.42c-1.16,3.04-4.47,4.09-8.44,2.66-18.44-6.61-34.61-17.03-48.06-30.97-24.02-24.89-36.43-55.07-36.87-89.68-.17-12.58-.12-25.37-.08-37.75.02-5.62.04-11.24.04-16.87s-.02-11.56-.04-17.34c-.03-12.52-.07-25.46.08-38.18.32-27.17,8.59-52.11,24.6-74.13,1.3-1.79,2.97-3.2,4.47-3.79,2.32-.91,4.44-.19,5.96,2.01,1.68,2.43,1.48,4.79-.65,7.67-9.65,13.03-15.79,25.8-18.76,39.05-1.84,8.2-3.97,19-4.11,29.76-.46,36.12-.31,72.85-.16,108.37v1.4c.1,23.68,7.32,46.54,20.89,66.11,13.54,19.54,32.41,34.35,54.55,42.83l.13.05c.65.25,1.29.49,1.92.75,1.98.81,6.37,3.2,4.53,8.05Z"/>
    <g>
      <path class="cls-1" d="M304.76,430.4v11.67c-.57.09-1.15.18-1.73.26-5.24.74-10.91,1.25-16.86,1.52-2.56.12-4.6-.47-5.88-1.71-1.03-.99-1.54-2.35-1.53-4.04,0-1.32.03-5.33,7.27-5.62,6.37-.26,12.62-.95,18.73-2.08Z"/>
      <path class="cls-1" d="M413.26,316.3c0,.58-.01,1.16-.03,1.73-3.66-1.24-7.44-2.21-11.32-2.88,0-.52,0-1.04,0-1.57v-42.93c0-20.75,0-41.51.02-62.26,0-6.08,3.02-6.92,5.29-7.02.13,0,.26,0,.4,0,1.59,0,2.88.46,3.83,1.36,1.18,1.12,1.8,2.94,1.81,5.25.03,13.27.03,26.55.02,39.82v15.25c0,.6,0,1.2,0,1.79v.02c0,5.63,0,11.27.02,16.9,0,11.33.03,23.04-.04,34.55Z"/>
    </g>
    <path class="cls-1" d="M308.89,364.99c-1.54,4.44-2.67,9.07-3.35,13.84-3.81,1.25-7.77,2.16-11.88,2.72-3.11.43-6.2.64-9.26.64-30.28,0-57.32-20.46-65-50.54-1.42-5.52-2.19-11.66-2.32-18.24-.22-12.16-.18-24.53-.14-36.5.02-4.83.04-9.65.04-14.47v-15.36c0-12.78-.02-25.56.01-38.35,0-2.67.68-4.74,1.93-5.97.97-.95,2.31-1.45,3.99-1.4,3.01.05,5.01,1.82,5.36,4.75.15,1.24.15,2.51.14,3.87v.85c0,11.02-.01,22.04-.01,33.06-.02,22.89-.03,46.57.04,69.86.07,25.27,15.17,46.48,38.45,54.04,14.77,4.79,28.85,3.84,42-2.8Z"/>
    <path class="cls-1" d="M396.57,145.59c-.43,1.8-2.41,4.11-4.24,4.94-.9.42-3.3,1.51-6.68-3.13-1.32-1.81-2.61-3.64-3.91-5.48-3.87-5.5-7.89-11.18-12.58-16.16-19.94-21.18-46.99-34.01-76.16-36.15-2.9-.21-5.78-.32-8.66-.32-26.12,0-51.47,8.68-72.18,24.85-.27.22-.55.44-.82.66-.53.43-1.02.84-1.53,1.17-2.83,1.85-6.02,1.52-7.92-.79-2.15-2.63-1.8-5.7.91-8.03,9.12-7.84,19.62-14.17,32.12-19.38,16.05-6.69,32.46-9.78,53.2-10.03,22.09.86,42.26,6.43,59.93,16.58,18.16,10.41,33.76,25.7,46.37,45.43,1.61,2.53,2.41,4.71,2.15,5.84Z"/>
    <path class="cls-1" d="M382.4,314.04h-1.98c-3.23,0-6.42.2-9.54.6.07-1.29.12-2.57.13-3.86.21-20.56.18-41.46.16-61.68-.02-12.76-.04-25.96.01-38.94.08-25.16-8.26-46.68-24.79-63.95-2.91-3.05-3.11-6.24-.53-8.75,1.16-1.13,2.42-1.71,3.74-1.71h.06c1.6.03,3.29.91,4.88,2.54,17.91,18.51,27.29,40.97,27.9,66.79.3,12.85.22,25.95.15,38.62-.03,5.75-.07,11.51-.07,17.27v2h.03c0,4.56.03,9.12.06,13.68.08,12.27.16,24.95-.21,37.39Z"/>
    <path class="cls-1" d="M304.76,399.35v11.33c-7.18,1.52-14.75,2.32-22.76,2.44-39.22-.2-76.95-27.33-89.72-64.52-1.37-4-.27-7.01,3.02-8.24.79-.29,1.51-.42,2.17-.42,2.95,0,4.61,2.59,5.4,4.36.21.48.4.97.58,1.47.18.48.35.95.55,1.42,11.31,26.66,30.65,43.84,57.5,51.06,15.14,4.08,29.59,4.44,43.26,1.1Z"/>
    <path class="cls-1" d="M320.75,316.26c-.9,18.07-14.85,33.33-31.76,34.74-19.78,1.65-35.93-9.72-40.17-28.28-.62-2.69-.93-5.77-.95-9.41-.07-12.6-.06-25.4-.05-37.79v-12.31s.01-.35.01-.35c0-.6-.01-1.17.05-1.69.41-3.77,2.5-5.93,5.73-5.93h.07c3.33.03,5.45,2.3,5.53,5.92.14,6.46.11,13.04.08,19.4,0,2.7-.02,5.4-.02,8.1v2h.29c-.02,2.27-.06,4.57-.1,6.8-.12,6.48-.24,13.18.24,19.77.62,8.48,5.5,15.9,13.05,19.85,7.66,4.02,16.69,3.79,24.14-.6,7.2-4.24,11.3-10.48,12.19-18.54.1-.97.22-2,.39-3.03.61-3.72,2.94-5.98,5.93-5.76,3.51.26,5.56,2.98,5.35,7.11Z"/>
    <path class="cls-1" d="M311.44,117.8c-.33,2.77-2.31,4.7-4.81,4.74-1.79-.24-3.5-.49-5.14-.72-3.46-.51-6.72-.98-10-1.22-38.89-2.81-73.36,18.73-87.81,54.9l-.28.71c-.23.59-.45,1.15-.7,1.68-1.64,3.49-4.32,4.82-7.33,3.64-3.33-1.29-4.53-4.13-3.27-7.77,4.35-12.6,10.93-23.59,19.57-32.67,20.41-21.45,44.51-32.24,71.88-32.24,7.28,0,14.8.77,22.53,2.3,4.05.8,5.81,2.98,5.36,6.65Z"/>
    <path class="cls-1" d="M351.68,312.92c-.03,2.34-.19,4.68-.4,6.94-4.38,1.83-8.55,4.06-12.47,6.65.72-5.98,1.41-12.12,1.45-18.23.1-22.8.09-45.98.08-68.4,0-10.29-.01-20.58,0-30.86,0-6.25,2.42-7.36,4.78-7.63.32-.03.63-.05.93-.05,1.45,0,2.64.41,3.55,1.23,1.39,1.23,2.13,3.37,2.14,6.17.05,9.49.04,19.14.03,28.47,0,3.89,0,7.78,0,11.68v13.98c0,4.72.02,9.44.03,14.16.03,11.77.06,23.94-.11,35.89Z"/>
    <path class="cls-1" d="M340.34,173.92c-.86,2.06-2.46,3.38-4.37,3.61-2.12.26-4.33-.85-5.91-2.97-7.05-9.48-15.91-16.25-26.33-20.11-23.32-8.63-49.28-.77-64.59,19.56-1.6,2.12-3.8,3.78-5.22,3.94-1.43.17-4.04-1.12-5.46-2.69-1.51-1.66-1.31-3.9.61-6.64,8.48-12.17,19.37-20.54,32.38-24.88,5.44-1.82,11.25-2.85,15.49-3.6,1.49-.27,2.79-.5,3.87-.73,25.35.71,43.59,9.3,57.41,27.02,2.27,2.91,3.22,4.86,2.12,7.49Z"/>
    <path class="cls-1" d="M197.59,245.19v28.16c0,13.09,0,26.18-.01,39.27,0,3.15-.62,5.36-1.84,6.56-.89.87-2.16,1.28-3.89,1.25-1.39-.02-5.65-.08-5.65-7.65-.01-12.64-.01-25.29-.01-37.93,0-21.97,0-43.94-.03-65.91-.01-4.09,1.11-6.21,3.84-7.32.74-.3,1.49-.45,2.2-.45.96,0,1.86.27,2.66.8,1.71,1.15,2.69,3.3,2.7,5.92.05,12.43.04,25.08.03,37.3Z"/>
    <path class="cls-1" d="M310.52,188.93c-.97,1.12-3.56,4.1-9.51-.76-7.26-5.92-16.62-7.76-25.06-4.93-7.9,2.66-13.58,8.9-15.58,17.14-1.05,4.36-1.13,8.91-1.21,13.31-.03,1.93-.07,3.94-.19,5.86l-.12,1.95.36.03c.01.86.02,1.72.03,2.58.04,3.26.08,6.64-.1,9.91-.18,3.16-2.19,5.2-5.26,5.33-1.69.05-3.33-.5-4.4-1.53-.85-.81-1.27-1.82-1.27-3.01,0-3.07-.08-6.21-.15-9.24-.22-9.23-.45-18.77,1.44-27.57,2.61-12.13,11.2-21.75,22.99-25.72,3.87-1.3,7.83-1.94,11.77-1.94,8.64,0,17.12,3.09,24,9,2.32,1.99,3.62,3.99,3.75,5.78.1,1.3-.39,2.54-1.49,3.81Z"/>
    <path class="cls-1" d="M320.9,273.03c-.02,6.83-3.48,7.4-4.62,7.59-1.92.31-3.56-.04-4.73-1.01-1.33-1.11-2.04-2.98-2.08-5.41-.1-7.85-.08-15.83-.06-23.55,0-3.27.02-6.54.02-9.81v-2h-.01v-6.99c0-7.68,0-15.37,0-23.05-.01-3.72.78-5.56,2.91-6.79,1.47-.86,3.24-.99,4.83-.36,1.56.61,2.74,1.88,3.23,3.47.33,1.08.5,2.38.51,3.85.04,24.89.04,45.24,0,64.06Z"/>
  </g>
  <g>
    <path class="cls-2" d="M432.67,410.75c0-10.64-2.64-14.08-13.37-17.16,0-6.05.15-12.25-.03-18.43-.25-8.28-2.97-16.06-7.4-22.5-.48-.7-.98-1.39-1.51-2.06-.49-.63-1-1.25-1.53-1.85-2.85-3.24-6.17-6.02-9.84-8.18-.6-.35-1.21-.69-1.82-1.01-.61-.32-1.23-.62-1.86-.9-3.59-1.62-7.43-2.68-11.44-3.07-.13-.02-.26-.03-.39-.04-.54-.05-1.08-.09-1.62-.11-.68-.04-1.35-.07-2.02-.07-4.11-.06-8.05.39-11.76,1.31-.71.18-1.41.37-2.1.58-.7.21-1.4.44-2.08.7-13.13,4.75-22.68,15.79-25.24,30.88-.5,2.95-.77,5.94-.94,8.97-.05.89-.09,1.79-.12,2.69-.03.86-.06,1.73-.08,2.6-.1,3.53-.16,7.11-.35,10.78-7.62,1.92-11.12,4.55-12.34,10.3-.16.74-.28,1.52-.36,2.37-.08.7-.12,1.44-.15,2.22-.02.51-.03,1.03-.03,1.57,0,3.52,0,7.03,0,10.55-.01.71-.01,1.43,0,2.14-.01.7-.01,1.41-.01,2.11,0,4.1,0,8.21,0,12.31v4.21c0,7.6,0,15.2.03,22.8.03,10.85,4.55,15.56,15.22,15.59,26.04.08,52.09.08,78.13,0,10.37-.04,14.99-4.78,15.02-15.18.06-18.04.04-36.08,0-54.12ZM346.53,390.63c.26-5.49.27-10.93.78-16.2.1-1.07.22-2.13.38-3.19.13-.95.28-1.89.47-2.82.13-.71.28-1.42.45-2.12,2.21-9.12,9.2-16.28,17.6-19.8.66-.28,1.33-.53,2.01-.76.79-.27,1.59-.51,2.39-.72,2.17-.54,4.39-.86,6.61-.9.82-.02,1.65,0,2.47.06.47.03.95.07,1.42.13.24.03.49.06.73.1,4.03.57,7.76,1.73,11.09,3.4.61.3,1.21.62,1.8.97.6.34,1.18.7,1.75,1.09,3.69,2.47,6.75,5.65,9,9.37.45.73.86,1.48,1.24,2.26.43.86.81,1.74,1.15,2.65,1.2,3.14,1.9,6.57,2.04,10.2.24,6.37.03,12.76.03,19.55h-63.61c.01-.19.03-.38.04-.57.06-.9.11-1.8.16-2.7ZM416.71,471.39c-25.45-.09-50.9-.1-76.34,0-5.48.03-7.42-2.49-7.39-7.72.07-8.37.1-16.74.1-25.12v-4.31c0-4.21-.01-8.42-.03-12.64-.01-.72-.01-1.44-.02-2.17,0-.73,0-1.47-.02-2.21,0-2.16-.02-4.31-.04-6.47-.05-5.66,2.21-7.88,7.9-7.77,4.95.1,9.88.14,14.83.14h3.17c1.03,0,2.05,0,3.08,0,5.48-.01,10.96-.05,16.44-.05h2.65c.92,0,1.83,0,2.75.01,10.94.01,21.87.08,32.82-.07,5.08-.07,7.36,1.99,7.34,7.07-.06,18.05-.08,36.09,0,54.13.03,5.09-2.19,7.21-7.25,7.19Z"/>
    <path class="cls-2" d="M382.57,417.45c-6.34-1.7-12.6.64-15.69,5.85-3.17,5.35-2.72,12.85,2.2,16.38,4.23,3.04,5.12,6.45,4.79,11.05-.23,3.14.28,6.33,4.41,6.46,4.57.14,4.96-3.23,4.84-6.63-.15-4.24-.05-7.82,4.4-10.65,2.57-1.64,3.55-5.77,5.24-8.78-.86-6.91-4.57-12.18-10.19-13.68ZM378.68,436.99c-2.29-3.24-4.64-5.13-4.43-6.65.24-1.67,2.7-3.86,4.48-4.17,1.17-.21,3.92,2.46,4.01,3.95.1,1.71-1.96,3.54-4.06,6.87Z"/>
  </g>
</svg>