<?xml version="1.0" encoding="UTF-8"?>
<svg id="Layer_1" data-name="Layer 1" xmlns="http://www.w3.org/2000/svg" viewBox="0 0 566.93 566.93">
  <defs>
    <style>
      .cls-1 {
        fill: #5fd0df;
      }

      .cls-1, .cls-2 {
        stroke-width: 0px;
      }

      .cls-2 {
        fill: #004987;
      }
    </style>
  </defs>
  <g>
    <path class="cls-1" d="M390.72,438.8c0,21.43-11.3,32.76-32.67,32.76h-149.35c-20.94,0-32.48-11.48-32.48-32.32,0-104.06-.01-208.12,0-312.18,0-20.19,11.63-31.78,31.92-31.8h14.31v1.5c0,1.19-.01,2.34-.01,3.45,0,2.28-.02,4.44.02,6.57.22,11.61,9.37,20.74,20.82,20.79,23.5.1,48.85.1,79.79.01,12.19-.04,21.19-9.03,21.41-21.38.03-1.91.02-3.82.01-5.95,0-1.06-.01-2.17-.01-3.35v-1.51h1.51c2.15.02,4.33-.07,6.44-.15,7.04-.28,14.32-.57,21.22,2.59,11.09,5.08,16.98,14.47,17.04,27.17.04,10.19.06,50.03.05,60.23h12.04c0-10.44-.01-50.44-.01-60.9,0-23.42-17.68-41.1-41.11-41.12-20.61-.02-41.18-.03-62.39-.03-29.44,0-60.14.02-94.01.04-2.4,0-5.17.04-7.74.56-20.23,4.05-33.33,19.95-33.38,40.5-.09,38.46-.07,77.56-.05,115.37,0,14.58,0,29.15,0,43.72,0,15.84,0,31.68,0,47.52-.03,36.74-.05,74.74.08,112.12.08,23.12,17.72,40.58,41.03,40.6,51.89.05,104.51.05,156.4,0,23.46-.02,41.16-17.68,41.17-41.08.01-14.47.01-29,.01-43.61,0-6.69,0-41.52,0-48.24h-12.06v88.12ZM234.56,99.28v-3.84h97.76v1.5c0,.88.01,1.74.02,2.59,0,1.88.03,3.67-.04,5.49-.27,7.2-3.66,10.43-10.98,10.45-8.22.03-16.52.04-24.76.04-5.13,0-10.23,0-15.27-.01-5.33,0-10.67-.02-16,0h-5.77c-4.37.01-8.73.01-13.09-.01-8.57-.05-11.79-3.25-11.86-11.81-.02-1.42,0-2.85,0-4.4Z"/>
    <path class="cls-1" d="M335.88,441.7c-.04,3.76-2.77,6.11-7.12,6.15-10.78.08-21.75.06-32.35.05-4.2-.01-8.41-.01-12.61-.01h-13.2c-10.61,0-21.23-.02-31.84.02-4.11.04-6.45-1.36-7.54-4.44-.59-1.64-.45-3.34.39-4.77.88-1.51,2.47-2.58,4.36-2.91,1.62-.29,3.4-.29,5.12-.29h.52c23.04-.01,46.08-.01,69.13-.01h14.4c.35,0,.69,0,1.04-.01.91,0,1.78-.01,2.64.04,4.79.3,7.1,2.32,7.06,6.18Z"/>
  </g>
  <g>
    <path class="cls-2" d="M442.5,232.09c-4.35-9.92-11.15-17.74-20.54-23.18-5.93-3.44-12.07-5.57-18.42-6.41-.37-.05-.74-.1-1.12-.13-.37-.04-.74-.08-1.12-.1-2.95-.25-5.94-.22-8.96.09-.37.03-.74.07-1.12.13-.37.04-.74.09-1.12.15-1.43.2-2.86.47-4.3.79-9.28,2.09-17.29,6.63-23.95,13.39-7.42,7.53-12.03,16.56-13.7,27.03-.78,4.86-.89,9.72-.01,14.58,1.53,8.47,4.86,16.22,9.58,23.38,10.79,16.36,21.58,32.72,32.38,49.06.03.04.06.09.09.13.33.51.67,1.02,1.03,1.53.35.49.71.97,1.12,1.41t.01.01c2.05,2.27,5.25,2.87,7.7,1.27.45-.29.87-.63,1.26-1.01.4-.38.77-.79,1.12-1.22.24-.3.46-.61.67-.92.15-.22.3-.45.45-.67,7.54-11.31,15.03-22.64,22.47-34,4.51-6.88,9.12-13.72,13.32-20.79,4.55-7.68,6.87-16.13,7.17-23.56-.03-8.27-1.31-14.79-4.01-20.96ZM436.46,269.41c-3.38,7.61-8.4,14.25-12.92,21.16-6.64,10.12-13.32,20.22-19.99,30.31-.37.57-.74,1.12-1.12,1.69s-.74,1.12-1.12,1.69c-1,1.5-1.99,3-2.98,4.5-.36.54-.74,1.05-1.29,1.81-.49-.64-.86-1.05-1.16-1.51-1.18-1.79-2.37-3.59-3.56-5.38-.37-.57-.74-1.13-1.12-1.69-.37-.57-.74-1.13-1.12-1.69-9.17-13.87-18.34-27.75-27.47-41.65-4.17-6.35-7.23-13.17-8.64-20.7-1.15-6.13-.73-12.16.99-18.09,3.55-12.27,11.08-21.34,22.41-27.24,4.05-2.11,8.3-3.49,12.7-4.17.37-.06.74-.11,1.12-.16.37-.05.74-.1,1.12-.13,1.55-.16,3.12-.24,4.69-.23,1.44,0,2.87.08,4.28.22.37.04.74.07,1.11.12.38.05.75.1,1.12.16,7.2,1.06,13.85,3.84,19.85,8.44,8.73,6.69,14.19,15.47,16.46,26.19,1.94,9.17.34,17.94-3.4,26.36Z"/>
    <path class="cls-2" d="M403.55,226.21c-.37-.1-.74-.19-1.12-.26-.37-.08-.74-.15-1.12-.21-1.33-.22-2.69-.34-4.08-.36-1.67-.01-3.31.13-4.9.42-.38.07-.75.14-1.12.23-.38.08-.75.18-1.12.28-11.02,3.04-19.21,13.12-19.28,25.06-.07,12.2,8.07,22.43,19.28,25.47.37.1.74.19,1.12.28.36.08.74.16,1.12.22,1.49.28,3.02.42,4.59.42,1.5,0,2.97-.11,4.4-.35.37-.06.74-.13,1.12-.21.37-.07.74-.16,1.12-.26,11.22-2.88,19.58-13.04,19.65-25.13.07-12.3-8.29-22.69-19.65-25.61ZM403.55,270.94c-.36.13-.74.24-1.12.34-.36.1-.74.19-1.12.27-1.9.42-3.9.56-5.94.38-1.04-.09-2.06-.26-3.05-.5-.38-.09-.75-.19-1.12-.31-.38-.11-.75-.24-1.12-.38-8.39-3.09-14.19-11.49-13.44-20.5.71-8.62,6.31-15.19,13.44-17.79.36-.14.74-.26,1.12-.37.37-.11.74-.22,1.12-.3,1.83-.44,3.73-.62,5.65-.53,1.14.06,2.25.21,3.33.45.38.07.75.16,1.12.27.38.1.75.22,1.12.34,8.68,2.92,14.51,11.4,13.78,20.66-.68,8.59-6.32,15.44-13.77,17.98Z"/>
  </g>
</svg>