<?xml version="1.0" encoding="UTF-8"?>
<svg id="Layer_1" data-name="Layer 1" xmlns="http://www.w3.org/2000/svg" viewBox="0 0 566.93 566.93">
  <defs>
    <style>
      .cls-1 {
        fill: #5fd0df;
      }

      .cls-1, .cls-2 {
        stroke-width: 0px;
      }

      .cls-2 {
        fill: #004987;
      }
    </style>
  </defs>
  <g>
    <g>
      <path class="cls-2" d="M474.93,340.63v-.84c0-3.64-.43-6.14-1.68-8-1.33-2-3.63-3.26-7.39-4.41h-61.44c-7.26,1.85-9.41,4.59-9.42,12.12v4.72c0,2.33,0,4.67,0,7-.01,9.4-.01,18.8.02,28.19,0,8,3.34,11.47,11.21,11.5,19.21.05,38.41.06,57.63-.01,7.64-.02,11.05-3.52,11.07-11.19.05-13.02.02-26.04.01-39.08ZM463.15,384.52c-18.76-.07-37.53-.07-56.29,0-4.04.02-5.48-1.84-5.45-5.69.06-9.2.09-18.41.06-27.61,0-2.34-.01-4.67-.03-7,0-1.48-.02-2.95-.03-4.43-.04-4.16,1.62-5.81,5.81-5.72,9.31.18,18.62.05,27.93.05s18.62.09,27.93-.03c2.96-.05,4.64.9,5.2,3.16.15.59.22,1.27.22,2.05,0,2.15-.02,4.3-.02,6.45-.03,11.15-.04,22.31.03,33.47.02,3.75-1.62,5.31-5.36,5.3Z"/>
      <path class="cls-2" d="M444.61,351.22c-1.23-3.28-3.54-5.65-6.63-6.48-4.67-1.25-9.29.47-11.57,4.32-.4.68-.72,1.41-.95,2.16-1.17,3.6-.43,7.76,2.57,9.92,3.12,2.24,3.78,4.75,3.53,8.14-.17,2.32.21,4.67,3.26,4.77,3.36.1,3.66-2.39,3.57-4.89-.12-3.13-.04-5.77,3.24-7.85,1.9-1.21,2.61-4.26,3.87-6.48-.16-1.29-.46-2.5-.89-3.61ZM435.11,359.15c-1.69-2.39-3.42-3.79-3.26-4.91.16-1.16,1.8-2.67,3.09-3.02.07-.02.14-.04.21-.05.12-.02.26,0,.41.05.96.32,2.48,1.91,2.54,2.87.08,1.26-1.44,2.61-2.99,5.06Z"/>
    </g>
    <path class="cls-2" d="M420.74,327.38c-.26-.09-.52-.16-.8-.24,0-4.45.11-9.03-.02-13.58-.2-6.6-2.52-12.76-6.26-17.71-4.84-6.42-12.06-10.81-20.12-11.5-11.55-1-21.61,3.38-27.62,11.5-2.71,3.65-4.59,8.05-5.44,13.05-1.01,5.91-.76,12.04-1.1,18.45-.02.01-.05.02-.08.03h6.84c.51-7,.12-13.91,1.68-20.36,1.09-4.49,3.74-8.33,7.23-11.17,4.67-3.79,10.84-5.77,16.73-5.04,4.91.6,9.22,2.37,12.65,5.04,5.14,4,8.32,10.01,8.59,17.11.18,4.7.03,9.41.03,14.42h7.69Z"/>
  </g>
  <g>
    <path class="cls-1" d="M449.37,220.35H117.56c-19.96,0-36.2,16.24-36.2,36.2v53.83c0,19.96,16.24,36.2,36.2,36.2h234.37v-7H117.56c-16.1,0-29.2-13.1-29.2-29.2v-53.83c0-16.1,13.1-29.2,29.2-29.2h331.81c16.1,0,29.19,13.1,29.19,29.2v55.57h7v-55.57c0-19.96-16.23-36.2-36.19-36.2Z"/>
    <path class="cls-1" d="M192.6,271.88l-5.57-9.96-21.78,14.83,1.86-26.42h-11.59l1.85,26.42-22.01-14.83-5.79,10.19,24.09,11.36-24.09,11.58,5.56,9.96,22.01-14.83-1.85,26.42h11.58l-1.85-26.42,21.78,14.83,5.8-10.19-23.87-11.59,23.87-11.35Z"/>
    <path class="cls-1" d="M291.63,271.88l-5.56-9.96-21.78,14.83,1.85-26.42h-11.58l1.85,26.42-22.01-14.83-5.8,10.19,24.1,11.36-24.1,11.58,5.56,9.96,22.02-14.83-1.86,26.42h11.59l-1.85-26.42,21.78,14.83,5.79-10.19-23.86-11.59,23.86-11.35Z"/>
  </g>
</svg>