<?xml version="1.0" encoding="UTF-8"?>
<svg id="Layer_1" data-name="Layer 1" xmlns="http://www.w3.org/2000/svg" viewBox="0 0 566.93 566.93">
  <defs>
    <style>
      .cls-1 {
        fill: #5fd0df;
      }

      .cls-1, .cls-2, .cls-3 {
        stroke-width: 0px;
      }

      .cls-2 {
        fill: #004987;
      }

      .cls-3 {
        fill: #fff;
      }
    </style>
  </defs>
  <g>
    <path class="cls-1" d="M285.02,170.86c58.17.97,110.4,20.99,154.41,61.65,2.08,1.92,3.83,4.82,4.47,7.56,1.17,4.99-1.41,9.42-5.73,11.65-4.3,2.22-9.32,1.42-13.22-2.23-11.22-10.47-23.35-19.73-36.6-27.49-26.23-15.37-54.43-24.74-84.75-27.46-55.4-4.98-105.02,9.71-148.83,43.95-4.41,3.45-8.53,7.27-12.72,10.99-5.09,4.51-12.06,4.53-16.32-.02-4.31-4.6-3.99-11.63.93-16.25,31.56-29.59,68.52-48.78,110.9-57.58,15.14-3.14,30.46-4.46,47.46-4.78Z"/>
    <path class="cls-3" d="M446.82,239.39c-.77-3.26-2.82-6.74-5.36-9.09-43.77-40.43-96.39-61.44-156.39-62.44h-.11c-18.52.35-33.78,1.89-48.01,4.84-42.73,8.87-80.53,28.49-112.35,58.33-6.05,5.67-6.51,14.67-1.06,20.49,5.36,5.72,14.17,5.81,20.5.21.92-.82,1.85-1.64,2.77-2.47,3.17-2.84,6.44-5.77,9.81-8.4,43.02-33.64,92.38-48.22,146.7-43.33,29.25,2.63,57.34,11.74,83.5,27.06,12.52,7.34,24.65,16.45,36.07,27.1,3.01,2.81,6.64,4.27,10.28,4.27,2.16,0,4.33-.52,6.37-1.57,5.85-3.02,8.71-8.91,7.28-15ZM426.98,247.3c-11.74-10.95-24.23-20.33-37.12-27.88-26.93-15.78-55.87-25.15-86-27.87-7.03-.63-13.97-.94-20.83-.94-47.73,0-91.41,15.27-130.11,45.52-3.52,2.75-6.87,5.76-10.11,8.66-.92.82-1.83,1.64-2.75,2.45-3.9,3.45-9.01,3.53-12.15.17-3.2-3.42-2.86-8.58.8-12.01,31-29.06,67.82-48.18,109.46-56.82,13.84-2.87,28.73-4.37,46.85-4.72,58.46.98,109.72,21.46,152.37,60.85,1.68,1.55,3.09,3.93,3.59,6.05.95,4.04-1.54,6.93-4.19,8.3-3.2,1.64-6.86.99-9.81-1.76Z"/>
  </g>
  <g>
    <path class="cls-1" d="M279.41,238.1c47.35.87,84.72,15.8,115.81,45.99,5.06,4.91,5.48,11.87,1.06,16.51-4.51,4.73-11.58,4.53-16.8-.57-21.48-20.93-47.04-33.92-76.73-37.92-38.22-5.15-72.89,4.11-103.54,27.69-4.25,3.26-8.14,7-12.1,10.62-5.04,4.6-11.91,4.78-16.33.3-4.5-4.57-4.15-11.59.83-16.5,22.98-22.66,50.41-37.02,82.04-43.07,9.82-1.88,19.89-2.38,25.77-3.05Z"/>
    <path class="cls-3" d="M397.3,281.94c-31.54-30.64-70.09-45.96-117.84-46.84h-.2l-.19.02c-1.59.18-3.49.35-5.69.54-5.82.51-13.06,1.15-20.3,2.54-32.18,6.16-60.3,20.92-83.59,43.88-6.16,6.08-6.52,15-.85,20.75,2.75,2.79,6.24,4.18,9.83,4.18s7.46-1.46,10.65-4.38c.74-.67,1.48-1.35,2.22-2.03,3.11-2.87,6.34-5.84,9.69-8.42,29.91-23.01,63.99-32.12,101.31-27.09,28.48,3.83,53.72,16.31,75.04,37.09,3.27,3.18,7.31,4.9,11.37,4.82,3.66-.07,7.1-1.61,9.7-4.33,5.53-5.81,5.04-14.72-1.15-20.73ZM388.64,301h-.15c-2.4,0-4.86-1.1-6.92-3.12-22.26-21.69-48.65-34.73-78.43-38.74-6.94-.94-13.76-1.4-20.48-1.4-31.01,0-59.63,9.94-85.29,29.68-3.56,2.74-6.89,5.81-10.1,8.77-.73.67-1.46,1.35-2.19,2.02-3.9,3.55-8.9,3.72-12.17.41-3.32-3.38-2.99-8.53.8-12.27,22.42-22.11,49.51-36.33,80.49-42.26,6.95-1.33,14.03-1.95,19.71-2.45,2.15-.19,4.02-.36,5.64-.54,46.06.89,83.21,15.66,113.57,45.14,3.88,3.77,4.29,8.82.98,12.29-1.5,1.58-3.39,2.43-5.46,2.47Z"/>
  </g>
  <g>
    <path class="cls-1" d="M280.33,305.42c29.39.65,51.64,9.66,70.25,27.5,3.56,3.41,4.73,7.52,3.32,12.11-1.39,4.54-4.8,7.07-9.52,7.63-4.19.5-7.36-1.53-10.25-4.31-9-8.67-19.51-14.79-31.65-17.79-26.2-6.47-49.4-.6-69.39,17.55-3.05,2.77-6.17,5.06-10.51,4.55-4.56-.53-7.9-2.9-9.4-7.29-1.52-4.43-.73-8.58,2.68-11.93,12.85-12.63,27.98-21.33,45.6-25.23,7.37-1.63,14.96-2.25,18.87-2.81Z"/>
    <path class="cls-3" d="M352.65,330.75c-19.48-18.67-42.44-27.68-72.26-28.34h-.25l-.24.03c-1.03.15-2.32.3-3.79.48-4.12.48-9.76,1.15-15.3,2.37-17.64,3.9-33.47,12.66-47.06,26.02-4.13,4.06-5.34,9.4-3.41,15.03,1.82,5.32,6.04,8.62,11.89,9.3,5.47.63,9.42-2.18,12.87-5.31,19.15-17.38,41.58-23.05,66.66-16.86,11.25,2.78,21.44,8.51,30.29,17.04,2.58,2.48,6.11,5.23,11.05,5.23.52,0,1.07-.03,1.63-.1,6.05-.72,10.33-4.18,12.03-9.73,1.74-5.67.32-10.91-4.11-15.16ZM351.03,344.15c-1.01,3.28-3.3,5.09-7.01,5.53-2.64.32-4.9-.7-7.81-3.5-9.62-9.26-20.73-15.5-33.01-18.54-7.1-1.75-14-2.62-20.69-2.62-18.9,0-36.14,6.98-51.44,20.87-2.93,2.66-5.2,4.13-8.14,3.79-3.58-.42-5.84-2.14-6.91-5.28-1.19-3.47-.56-6.36,1.94-8.81,12.77-12.56,27.63-20.78,44.15-24.44,5.24-1.16,10.71-1.81,14.71-2.28,1.41-.16,2.66-.31,3.68-.45,28.11.66,49.72,9.14,68,26.66,2.76,2.65,3.59,5.61,2.53,9.07Z"/>
  </g>
  <path class="cls-2" d="M283.54,399.07c-10.12.08-18.77-8.51-18.84-18.69-.06-10.13,8.5-18.76,18.69-18.83,10.13-.07,18.77,8.5,18.84,18.68.06,10.13-8.5,18.76-18.69,18.83Z"/>
</svg>