<?xml version="1.0" encoding="UTF-8"?>
<svg id="Layer_1" data-name="Layer 1" xmlns="http://www.w3.org/2000/svg" viewBox="0 0 566.93 566.93">
  <defs>
    <style>
      .cls-1 {
        fill: #5fd0df;
      }

      .cls-1, .cls-2 {
        stroke-width: 0px;
      }

      .cls-2 {
        fill: #004987;
      }
    </style>
  </defs>
  <g>
    <path class="cls-2" d="M508.39,286.08c-.01-9.26-2.31-12.25-11.65-14.94,0-5.26.14-10.65-.02-16.03-.53-17.87-14.27-33.02-31.15-34.48-19.75-1.7-35.78,9.93-39.01,28.98-1.18,6.98-.89,14.21-1.29,21.79-8.65,2.18-11.2,5.41-11.22,14.33-.02,15.7-.03,31.4,0,47.1.02,9.45,3.95,13.54,13.24,13.57,22.67.07,45.34.07,68,0,9.03-.03,13.05-4.16,13.08-13.21.05-15.71.02-31.41.01-47.11ZM435.22,247.4c3-12.41,16.15-20.63,28.28-19.14,14.48,1.77,24.54,12.18,25.07,26.14.21,5.55.03,11.11.03,17.02h-55.36c.6-8.26.15-16.42,1.98-24.02ZM494.49,338.86c-22.15-.08-44.3-.09-66.44,0-4.77.02-6.46-2.17-6.43-6.72.11-15.35.13-30.71,0-46.06-.04-4.92,1.92-6.86,6.87-6.76,10.99.22,21.97.07,32.96.07s21.98.1,32.96-.05c4.43-.06,6.41,1.73,6.4,6.16-.06,15.7-.08,31.4,0,47.11.02,4.43-1.91,6.27-6.32,6.25Z"/>
    <path class="cls-2" d="M464.78,291.91c-5.52-1.47-10.97.56-13.66,5.1-2.75,4.65-2.36,11.18,1.92,14.26,3.68,2.64,4.46,5.6,4.16,9.61-.2,2.74.25,5.51,3.85,5.62,3.97.12,4.31-2.81,4.21-5.76-.14-3.7-.05-6.81,3.83-9.28,2.23-1.42,3.08-5.02,4.56-7.64-.75-6.01-3.98-10.6-8.87-11.91ZM461.39,308.93c-1.99-2.83-4.04-4.48-3.85-5.8.21-1.45,2.35-3.35,3.9-3.63,1.01-.17,3.4,2.14,3.48,3.45.09,1.48-1.7,3.08-3.53,5.98Z"/>
  </g>
  <g>
    <g>
      <path class="cls-1" d="M194.69,286.23c-.01-8.91-2.14-12-10.69-14.62h-72.34c-8.56,2.18-11.08,5.41-11.1,14.28-.02,15.66-.03,31.33.01,46.99.02,9.43,3.94,13.52,13.21,13.54,22.62.06,45.23.07,67.85-.01,9-.02,13.02-4.14,13.05-13.17.05-15.67.02-31.33.01-47.01ZM180.82,338.9c-22.09-.08-44.2-.09-66.3,0-4.75.02-6.44-2.16-6.4-6.7.1-15.32.13-30.65,0-45.97-.05-4.9,1.91-6.84,6.85-6.74,10.96.21,21.93.06,32.88.06s21.93.11,32.89-.04c4.41-.06,6.4,1.72,6.38,6.14-.06,15.67-.07,31.34,0,47.01.03,4.42-1.9,6.25-6.3,6.24Z"/>
      <path class="cls-1" d="M151.17,292.05c-5.5-1.47-10.93.57-13.62,5.09-2.75,4.65-2.36,11.15,1.91,14.22,3.67,2.64,4.45,5.6,4.16,9.6-.2,2.73.25,5.5,3.83,5.61,3.96.12,4.31-2.81,4.21-5.76-.14-3.69-.05-6.79,3.82-9.25,2.23-1.42,3.07-5.01,4.55-7.62-.75-6-3.98-10.58-8.86-11.89ZM147.79,309.03c-1.99-2.82-4.03-4.47-3.84-5.79.21-1.44,2.35-3.34,3.89-3.61,1.01-.18,3.4,2.13,3.48,3.43.09,1.49-1.7,3.08-3.53,5.97Z"/>
    </g>
    <path class="cls-1" d="M130.87,271.61c-.3-.1-.61-.18-.93-.28,0-5.24.13-10.63-.03-16-.53-17.82-14.23-32.94-31.07-34.39-19.71-1.7-35.71,9.9-38.93,28.91-1.18,6.96-.89,14.18-1.29,21.73-.03,0-.06.02-.09.03h8.05c.6-8.24.14-16.38,1.98-23.97,2.98-12.38,16.1-20.59,28.21-19.1,14.44,1.78,24.48,12.15,25.01,26.09.21,5.53.04,11.08.04,16.98h9.05Z"/>
  </g>
  <g>
    <g>
      <path class="cls-1" d="M361.99,286.23c-.01-8.91-2.14-12-10.68-14.62h-72.35c-8.55,2.18-11.08,5.41-11.1,14.28-.02,15.66-.03,31.33,0,46.99.02,9.43,3.94,13.52,13.21,13.54,22.62.06,45.23.07,67.86-.01,8.99-.02,13.01-4.14,13.04-13.17.05-15.67.02-31.33.01-47.01ZM348.12,338.9c-22.09-.08-44.19-.09-66.29,0-4.76.02-6.45-2.16-6.41-6.7.1-15.32.13-30.65-.01-45.97-.05-4.9,1.91-6.84,6.85-6.74,10.96.21,21.93.06,32.89.06s21.92.11,32.88-.04c4.41-.06,6.4,1.72,6.38,6.14-.06,15.67-.07,31.34.01,47.01.03,4.42-1.9,6.25-6.3,6.24Z"/>
      <path class="cls-1" d="M318.47,292.05c-5.5-1.47-10.93.57-13.61,5.09-2.76,4.65-2.37,11.15,1.91,14.22,3.66,2.64,4.44,5.6,4.15,9.6-.2,2.73.25,5.5,3.83,5.61,3.96.12,4.31-2.81,4.21-5.76-.14-3.69-.05-6.79,3.82-9.25,2.23-1.42,3.07-5.01,4.55-7.62-.75-6-3.98-10.58-8.86-11.89ZM315.09,309.03c-1.99-2.82-4.03-4.47-3.83-5.79.2-1.44,2.34-3.34,3.89-3.61,1-.18,3.39,2.13,3.47,3.43.09,1.49-1.7,3.08-3.53,5.97Z"/>
    </g>
    <path class="cls-1" d="M298.18,271.61c-.31-.1-.62-.18-.94-.28,0-5.24.13-10.63-.03-16-.53-17.82-14.23-32.94-31.07-34.39-19.71-1.7-35.71,9.9-38.93,28.91-1.18,6.96-.89,14.18-1.29,21.73-.03,0-.06.02-.09.03h8.05c.6-8.24.14-16.38,1.98-23.97,2.99-12.38,16.1-20.59,28.21-19.1,14.44,1.78,24.48,12.15,25.01,26.09.21,5.53.04,11.08.04,16.98h9.06Z"/>
  </g>
</svg>